<?xml version="1.0" encoding="UTF-8" standalone="no"?>

<svg version="1.1" xmlns="http://www.w3.org/2000/svg" height="1320" width="726">
    <g>
        <path id="head" title="head" fill="#CCC"  fill-opacity="1" stroke="#1b87f7" stroke-opacity="1" stroke-width="0.5" d="M342.16,18.833C316.254,18.833 298.333,32.5 291.746,54.308C288.532,64.949 288.148,78.365 288.148,94.819C288.148,97.002 288.207,99.182 288.308,101.355C288.829,112.577 290.618,123.528 292.916,132.938C296.125,146.079 300.318,156.213 303.412,159.852C306.884,165.175 312.783,169.619 317.242,173.102C324.779,178.99 331.913,182.131 343.279,182.131C354.997,182.131 363.384,178.286 370.55,171.911C374.447,168.444 379.392,163.524 381.078,159.685C384.432,153.11 387.233,142.416 389.378,131.665C391.891,119.067 393.5,106.407 394.041,100.192C394.174,98.655 394.245,97.498 394.245,96.851C394.245,81.727 402.167,18.833 342.16,18.833Z" />
        <path id="right_eye" title="right_eye" fill="#CCC"  fill-opacity="1" stroke="#1b87f7" stroke-opacity="1" stroke-width="0.5" d="M329.873,89.935C329.873,85.099 324.392,81.179 316.395,81.179C308.4,81.179 301.918,85.099 301.918,89.935C301.918,94.771 308.399,93.47 316.395,93.47C324.392,93.47 329.873,94.771 329.873,89.935Z" />
        <path id="left_eye" title="left_eye" fill="#CCC"  fill-opacity="1" stroke="#1b87f7" stroke-opacity="1" stroke-width="0.5" d="M368.229,93.239C376.224,93.239 382.706,94.771 382.706,89.935C382.706,85.099 376.225,81.179 368.229,81.179C360.233,81.179 354.751,85.099 354.751,89.935C354.751,94.771 360.232,93.239 368.229,93.239Z" />
        <path id="right_ear" title="right_ear" fill="#CCC"  fill-opacity="1" stroke="#1b87f7" stroke-opacity="1" stroke-width="0.5" d="M281.25,97.125C278.375,97.75 277.125,105.375 278.125,110.75C279.125,116.125 282.034,125 284.58,129.5C286.917,133.631 289.427,139.057 292.917,132.938C290.619,123.527 288.83,112.576 288.309,101.355C285.986,99.067 283.102,96.723 281.25,97.125Z" />
        <path id="left_ear" title="left_ear" fill="#CCC"  fill-opacity="1" stroke="#1b87f7" stroke-opacity="1" stroke-width="0.5" d="M396,132.625C397.5,130.25 400.375,123.75 401.75,120C403.125,116.25 404.625,105.75 404.125,101.125C403.625,96.5 399.375,96.25 397.625,98.875C396.818,100.084 395.428,100.411 394.041,100.193C393.5,106.407 391.892,119.068 389.378,131.666C391.777,136.98 394.819,134.495 396,132.625Z" />
        <path id="nose" title="nose" fill="#CCC"  fill-opacity="1" stroke="#1b87f7" stroke-opacity="1" stroke-width="0.5" d="M331.123,116.752C330.715,121.171 334.583,122.655 337.739,122.417C342.409,124.869 343.637,123.406 346.556,122.239C350.303,122.244 352.637,119.551 352.637,115.349C352.637,111.146 348.55,109.044 348.083,103.907C347.616,98.77 344.931,96.785 345.164,91.298C345.397,85.811 345.614,81.727 342.148,81.727C337.282,81.727 338.362,89.082 338.712,91.651C339.063,94.219 336.728,101.575 336.377,104.494C336.026,107.413 331.707,110.448 331.123,116.752Z" />
        <path id="lips" title="lips" fill="#CCC"  fill-opacity="1" stroke="#1b87f7" stroke-opacity="1" stroke-width="0.5" d="M350.479,136.185C348.47,133.796 344.93,134.736 343.466,135.527C342.681,135.951 340.35,136.295 338.903,135.198C337.456,134.101 333.449,135.089 332.336,136.624C331.223,138.16 321.975,140.661 322.109,142.345C322.27,144.363 328.775,143.629 330.889,144.397C333.004,145.165 334.897,147.687 342.577,147.687C350.259,147.687 352.342,145.242 354.376,144.836C356.411,144.43 361.611,144.185 361.945,142.101C362.278,140.018 353.708,140.024 350.479,136.185Z" />
        <path id="neck" title="neck" fill="#CCC"  fill-opacity="1" stroke="#1b87f7" stroke-opacity="1" stroke-width="0.5" d="M315.245,235.186C322.911,233.853 329.245,238.853 333.578,242.853C337.911,246.853 345.244,246.853 348.911,242.853C352.578,238.853 360.912,233.52 373.245,235.52C385.578,237.52 389.578,234.52 399.578,229.52C412.781,222.918 419.032,220.415 436.259,214.976C432.024,214.697 427.817,214.586 423.745,214.354C406.245,213.354 384.788,209.724 381.245,201.021C377.166,191.002 378,173.669 381.078,159.688C379.391,163.527 374.447,168.447 370.55,171.914C363.385,178.289 354.997,182.134 343.279,182.134C331.913,182.134 324.779,178.992 317.242,173.105C312.783,169.622 306.884,165.178 303.412,159.855C303.745,162.022 306.162,178.627 305.245,192.105C304.333,205.503 294.483,208.749 273.633,212.689C265.557,214.215 252.262,215.684 244.245,216.355C264.911,219.855 287.578,226.855 291.578,229.855C295.578,232.855 307.579,236.519 315.245,235.186Z" />
        <path id="upper_torso" title="upper_torso" fill="#CCC"  fill-opacity="1" stroke="#1b87f7" stroke-opacity="1" stroke-width="0.5" d="M443.389,320.851C441.59,316.056 440.225,311.233 440.579,304.851C441.013,297.047 442.55,286.561 442.172,275.856C441.46,255.714 433.968,234.797 399.578,229.519C389.578,234.519 385.578,237.519 373.245,235.519C360.912,233.519 352.578,238.852 348.911,242.852C345.244,246.852 337.911,246.852 333.578,242.852C329.245,238.852 322.911,233.852 315.245,235.185C307.579,236.518 295.578,232.852 291.578,229.852C258.701,233.054 243.86,254.282 243.496,279.133C243.443,282.755 243.694,286.452 244.245,290.183C246.151,303.087 244.122,313.669 241.404,323.252C237.944,335.453 234.229,338.166 234.37,357.726C235.62,365.726 239.495,374.476 243.245,378.976C243.739,383.92 246.893,399.266 248.932,407.815C249.471,410.074 249.932,411.858 250.245,412.851C250.712,414.329 251.421,420.937 252.13,429.657C254.393,433.649 259.579,461.97 300.96,443.895C313.008,438.633 325.076,430.749 342.161,430.749C359.246,430.749 372.532,439.209 383.225,444.009C423.246,461.971 430.211,437.224 433.269,427.492C434.14,417.355 434.934,409.776 435.245,408.727C436.245,405.352 440.411,384.519 441.078,378.685C444.411,374.685 448.995,363.685 449.411,359.268C451.936,339.241 446.857,330.096 443.389,320.851Z" />
        <path id="chest" title="chest" fill="#CCC"  fill-opacity="1" stroke="#1b87f7" stroke-opacity="1" stroke-width="0.5" d="M443.389,320.851C426.912,275.856 377.245,306.852 342.161,306.852C307.077,306.852 257.246,274.519 241.404,323.253C237.944,335.454 234.229,338.167 234.37,357.727C235.62,365.727 239.495,374.477 243.245,378.977C266.245,408.352 296.079,390.516 310.245,377.977C318.638,370.549 330.745,363.166 342.161,363.166C351.745,363.166 360.245,367.987 369.745,375.977C391.745,394.48 423.745,402.602 441.078,378.685C444.411,374.685 448.995,363.685 449.411,359.268C451.936,339.241 446.857,330.096 443.389,320.851Z" />
        <path id="left_breast" title="left_breast" fill="#CCC"  fill-opacity="1" stroke="#1b87f7" stroke-opacity="1" stroke-width="0.5" d="M443.389,320.851C429.985,284.247 394.615,297.934 363,304.312C349.968,306.941 355.52,364.013 369.745,375.977C391.745,394.48 423.745,402.602 441.078,378.685C444.411,374.685 448.995,363.685 449.411,359.268C451.936,339.241 446.857,330.096 443.389,320.851Z" />
        <path id="left_nipple" title="left_nipple" fill="#CCC"  fill-opacity="1" stroke="#1b87f7" stroke-opacity="1" stroke-width="0.5" d="M413.43,349.349C420.144,349.349 425.594,354.799 425.594,361.513C425.594,368.227 421.898,370.871 415.184,370.871C408.47,370.871 401.265,368.227 401.265,361.513C401.265,354.799 406.716,349.349 413.43,349.349Z" />
        <path id="right_breast" title="right_breast" fill="#CCC"  fill-opacity="1" stroke="#1b87f7" stroke-opacity="1" stroke-width="0.5" d="M310.245,377.977C324.412,365.439 332.843,306.922 314.404,302.69C284.678,295.868 253.36,286.472 241.404,323.253C237.944,335.454 234.229,338.167 234.37,357.727C235.62,365.727 239.495,374.477 243.245,378.977C266.245,408.352 296.078,390.515 310.245,377.977Z" />
        <path id="right_nipple" title="right_nipple" fill="#CCC"  fill-opacity="1" stroke="#1b87f7" stroke-opacity="1" stroke-width="0.5" d="M274.319,349.349C281.033,349.349 286.484,354.799 286.484,361.513C286.484,368.227 280.565,370.871 273.851,370.871C267.137,370.871 262.154,368.227 262.154,361.513C262.154,354.799 267.605,349.349 274.319,349.349Z" />
        <path id="belly" title="belly" fill="#CCC"  fill-opacity="1" stroke="#1b87f7" stroke-opacity="1" stroke-width="0.5" d="M383.226,444.009C372.533,439.21 359.247,430.749 342.162,430.749C325.077,430.749 313.009,438.633 300.961,443.895C259.58,461.97 254.394,433.648 252.131,429.657C253.702,448.963 255.279,478.618 254.246,485.851C253.111,493.792 244.97,513.891 239.447,527.324C243.083,534.84 264.487,566.972 341.36,566.972C418.233,566.972 441.346,535.61 445.399,527.324C443.173,522.001 440.913,515.351 439.996,512.601C438.746,508.851 433.246,495.601 430.746,489.351C429.023,485.043 431.338,449.975 433.27,427.491C430.212,437.224 423.246,461.971 383.226,444.009Z" />
        <path id="slip_zone" title="slip_zone" fill="#CCC"  fill-opacity="1" stroke="#1b87f7" stroke-opacity="1" stroke-width="0.5" d="M341.359,566.973C264.486,566.973 243.082,534.841 239.446,527.325C237.667,531.652 236.159,535.288 235.245,537.602C234.527,539.421 230.492,549.78 225.979,565.7C246.88,571.383 292.581,619.619 311.992,644.932C327.245,637.852 353.921,637.633 372.333,644.243C388.943,619.378 428.455,572.08 457.877,565.652C453.102,546.989 448.684,534.059 447.745,532.353C447.012,531.02 446.207,529.261 445.398,527.326C441.346,535.611 418.232,566.973 341.359,566.973Z" />
        <path id="vulva" title="vulva" fill="#CCC"  fill-opacity="1" stroke="#1b87f7" stroke-opacity="1" stroke-width="0.5" d="M311.992,644.932C317.737,652.424 321.577,657.909 322.411,659.686C337.744,676.853 351.078,672.186 363.245,658.852C364.092,657.138 367.351,651.7 372.333,644.243C353.921,637.633 327.245,637.852 311.992,644.932Z" />
        <path id="right_shoulder" title="right_shoulder" fill="#CCC"  fill-opacity="1" stroke="#1b87f7" stroke-opacity="1" stroke-width="0.5" d="M243.496,279.133C243.86,254.281 258.701,233.053 291.578,229.852C287.578,226.852 264.911,219.852 244.245,216.352C236.228,217.023 207.412,215.519 198.745,260.852C197.419,267.788 192.133,290.003 190.304,310.496C198.757,297.442 235.279,295.249 243.496,279.133Z" />
        <path id="left_shoulder" title="left_shoulder" fill="#CCC"  fill-opacity="1" stroke="#1b87f7" stroke-opacity="1" stroke-width="0.5" d="M442.172,275.855C447.245,296.852 491.751,294.744 494.245,312.852C494.245,307.352 489.245,253.102 475.245,233.602C464.503,218.639 450.227,215.894 436.259,214.974C419.032,220.413 412.781,222.917 399.578,229.518C433.968,234.797 441.46,255.713 442.172,275.855Z" />
        <path id="right_upperarm" title="right_upperarm" fill="#CCC"  fill-opacity="1" stroke="#1b87f7" stroke-opacity="1" stroke-width="0.5" d="M241.404,323.253C244.122,313.67 246.151,303.088 244.245,290.184C243.694,286.453 243.443,282.755 243.496,279.134C235.279,295.249 198.757,297.443 190.304,310.496C190.036,313.503 189.841,316.474 189.745,319.352C189.048,340.263 171.948,384.908 166.926,401.95C168.899,423.485 205.576,422.521 215.55,413.625C216.392,411.48 217.158,409.652 217.745,408.352C220.078,403.185 233.412,368.685 234.37,357.727C234.229,338.167 237.944,335.454 241.404,323.253Z" />
        <path id="left_upperarm" title="left_upperarm" fill="#CCC"  fill-opacity="1" stroke="#1b87f7" stroke-opacity="1" stroke-width="0.5" d="M517.358,401.382C517.157,400.613 516.949,399.823 516.725,398.991C514.505,390.714 511.19,379.316 506.245,364.602C502.505,353.474 499.896,344.309 498.093,336.889C496.933,332.118 496.105,328.069 495.522,324.682C494.527,318.902 494.246,315.055 494.246,312.852C491.752,294.744 447.246,296.852 442.173,275.855C442.551,286.56 441.014,297.046 440.58,304.85C440.226,311.232 441.591,316.055 443.39,320.85C446.859,330.095 451.937,339.241 449.412,359.268C449.745,361.185 451.246,363.351 452.079,366.185C452.912,369.019 459.413,388.852 462.413,397.018C463.775,400.726 466.031,405.706 468.213,410.741C473.072,423.191 524.631,432.896 517.358,401.382Z" />
        <path id="right_elbow" title="right_elbow" fill="#CCC"  fill-opacity="1" stroke="#1b87f7" stroke-opacity="1" stroke-width="0.5" d="M166.926,401.95C166.545,403.245 166.225,404.399 165.995,405.352C162.745,418.852 160.245,428.852 156.495,435.102C155.151,437.341 152.072,443.477 148.538,451.816C156.751,441.837 170.162,439.527 180.298,444.004C190.77,448.63 198.502,461.609 199.787,477.776C200.2,476.089 200.526,474.593 200.744,473.351C202.411,463.851 207.244,444.351 208.744,435.684C209.867,429.198 213.043,420.005 215.549,413.623C205.576,422.521 168.898,423.484 166.926,401.95Z" />
        <path id="left_elbow" title="left_elbow" fill="#CCC"  fill-opacity="1" stroke="#1b87f7" stroke-opacity="1" stroke-width="0.5" d="M504.594,444.005C516.265,438.85 530.078,438.94 536.699,453.872C535.335,450.611 534.017,447.639 532.808,445.048C531.676,442.624 530.639,440.533 529.745,438.852C523.495,427.102 521.745,418.852 520.745,415.102C520.276,413.343 519.308,408.823 517.358,401.382C524.63,432.896 473.072,423.192 468.212,410.741C470.835,416.793 473.351,422.924 474.078,427.018C474.948,431.913 476.912,442.851 478.578,448.351C479.42,451.131 480.688,458.17 482.082,465.356C483.444,472.386 484.927,479.556 486.245,483.018C481.555,462.252 491.784,449.663 504.594,444.005Z" />
        <path id="right_forarm" title="right_forarm" fill="#CCC"  fill-opacity="1" stroke="#1b87f7" stroke-opacity="1" stroke-width="0.5" d="M180.299,444.005C170.162,439.527 156.752,441.838 148.539,451.817C142.211,466.752 134.42,488.781 132.496,508.353C128.116,552.878 121.575,569.561 116.576,582.888C118.342,587.255 123.775,589.575 128.951,591.822C134.468,594.217 143.741,595.949 148.958,595C151.007,590.47 153.229,585.671 155.496,581.603C163.996,566.353 177.246,538.186 184.246,522.52C190.33,508.902 197.042,488.993 199.789,477.778C198.503,461.61 190.771,448.631 180.299,444.005Z" />
        <path id="left_forearm" title="left_forearm" fill="#CCC"  fill-opacity="1" stroke="#1b87f7" stroke-opacity="1" stroke-width="0.5" d="M555.942,591.821C561.079,589.592 566.47,587.291 568.278,582.988C568.103,582.536 567.926,582.077 567.745,581.602C561.245,564.602 556.245,534.352 552.745,508.352C550.281,490.047 542.984,468.891 536.699,453.872C530.078,438.94 516.264,438.85 504.594,444.005C491.784,449.663 481.555,462.253 486.245,483.019C488.912,490.019 497.245,518.019 506.245,535.019C513.728,549.155 530.025,582.358 536.024,595.015C541.258,595.928 550.457,594.202 555.942,591.821Z" />
        <path id="right_wrist" title="right_wrist" fill="#CCC"  fill-opacity="1" stroke="#1b87f7" stroke-opacity="1" stroke-width="0.5" d="M128.95,591.821C123.773,589.574 118.34,587.255 116.575,582.887C115.892,584.708 115.237,586.469 114.62,588.227C111.878,596.052 108.993,600.404 106.462,602.915C113.272,602.11 120.257,604.19 126.063,607.838C132.292,611.753 137.698,612.44 139.399,617.605C140.426,614.066 143.002,608.112 146.352,600.764C147.176,598.956 148.051,597.001 148.956,594.999C143.74,595.948 134.467,594.215 128.95,591.821Z" />
        <path id="left_wrist" title="left_wrist" fill="#CCC"  fill-opacity="1" stroke="#1b87f7" stroke-opacity="1" stroke-width="0.5" d="M558.829,607.838C566.653,602.921 576.619,600.84 585.412,604.852C576.34,600.154 574.352,598.68 568.278,582.988C566.47,587.291 561.079,589.592 555.942,591.821C550.457,594.202 541.257,595.928 536.024,595.015C537.24,597.58 538.034,599.305 538.245,599.852C539.495,603.102 543.87,612.602 543.995,615.352C544.052,616.589 544.462,620.05 545.112,624.372C543.745,612.54 550.563,613.033 558.829,607.838Z" />
        <path id="right_hand" title="right_hand" fill="#CCC"  fill-opacity="1" stroke="#1b87f7" stroke-opacity="1" stroke-width="0.5" d="M126.063,607.838C120.257,604.19 113.272,602.109 106.462,602.915C104.263,605.096 102.332,605.888 100.995,606.353C98.12,607.353 80.37,617.978 74.62,621.603C68.87,625.228 65.995,630.978 60.37,633.728C54.745,636.478 51.87,640.603 50.37,642.353C48.87,644.103 43.745,649.853 43.745,652.228C43.745,654.603 48.12,655.978 51.745,655.103C55.37,654.228 63.495,646.478 67.495,642.728C71.495,638.978 76.995,637.853 79.745,637.853C82.495,637.853 82.37,640.978 81.62,642.353C80.87,643.728 78.745,650.603 77.62,655.978C76.495,661.353 76.62,667.853 75.745,669.978C74.87,672.103 70.745,689.353 70.12,693.603C69.495,697.853 67.495,709.103 70.12,712.603C72.745,716.103 76.12,713.853 77.245,711.228C78.37,708.603 80.87,697.103 81.331,694.353C81.792,691.603 88.12,673.228 88.745,671.603C89.37,669.978 91.87,674.228 90.995,677.353C90.12,680.478 88.62,689.103 86.245,695.853C83.87,702.603 83.62,709.978 82.87,713.353C82.12,716.728 81.12,721.478 81.37,724.853C81.62,728.228 84.495,730.728 86.87,729.478C89.245,728.228 91.745,719.978 92.37,716.978C92.995,713.978 96.37,702.603 97.995,698.603C99.62,694.603 100.995,678.103 101.995,675.603C102.995,673.103 103.87,676.728 103.245,678.353C102.62,679.978 99.87,696.353 99.495,699.978C99.12,703.603 95.995,714.853 96.87,719.103C97.745,723.353 101.995,722.603 103.62,720.853C105.245,719.103 106.12,713.728 106.62,711.103C107.12,708.478 110.745,697.728 112.047,693.603C113.349,689.478 115.495,677.353 116.12,673.353C116.745,669.353 118.12,671.728 117.245,675.103C116.37,678.478 116.37,686.978 115.495,689.353C114.62,691.728 114.495,697.478 113.745,698.978C112.995,700.478 110.995,704.853 112.745,707.978C114.495,711.103 117.745,709.478 118.62,708.103C119.495,706.728 122.37,697.478 123.62,694.728C124.87,691.978 126.245,683.728 127.37,678.853C128.495,673.978 130.578,667.853 131.745,661.353C132.912,654.853 133.078,647.353 134.245,643.019C135.412,638.686 138.745,624.353 138.912,620.019C138.934,619.43 139.108,618.61 139.399,617.606C137.699,612.44 132.293,611.753 126.063,607.838Z" />
        <path id="left_hand" title="left_hand" fill="#CCC"  fill-opacity="1" stroke="#1b87f7" stroke-opacity="1" stroke-width="0.5" d="M629.578,635.019C626.244,629.852 615.912,625.019 612.578,621.519C609.244,618.019 594.745,609.686 585.412,604.852C576.619,600.84 566.653,602.921 558.829,607.838C550.563,613.033 543.745,612.54 545.112,624.372C545.907,629.661 547.063,636.237 548.37,641.602C550.745,651.352 550.495,657.852 551.87,663.977C553.245,670.102 556.745,678.477 557.62,685.227C558.495,691.977 560.995,692.477 563.12,700.477C565.245,708.477 569.995,708.852 571.245,706.602C572.495,704.352 571.62,699.102 570.87,698.102C570.12,697.102 569.37,694.977 568.995,692.852C568.62,690.727 567.37,684.477 566.87,681.352C566.37,678.227 563.745,668.227 564.62,666.852C565.495,665.477 568.12,670.852 568.37,672.727C568.62,674.602 571.37,687.602 573.37,693.977C575.37,700.352 577.37,712.477 580.495,716.852C583.62,721.227 587.62,717.977 587.62,713.977C587.62,709.977 584.62,696.852 584.37,693.977C584.12,691.102 580.495,673.977 579.995,672.352C579.495,670.727 582.495,671.227 582.745,672.602C582.995,673.977 584.495,683.227 585.745,686.977C586.995,690.727 590.745,705.102 591.245,707.727C591.745,710.352 593.245,721.852 597.37,723.977C601.495,726.102 603.245,721.852 603.62,718.102C603.995,714.352 598.12,688.102 597.245,683.602C596.37,679.102 592.87,666.727 594.245,665.477C595.62,664.227 599.12,677.227 599.745,681.227C600.37,685.227 604.12,704.102 605.62,707.852C607.12,711.602 611.37,712.602 613.12,709.352C614.87,706.102 611.62,684.977 611.245,677.977C610.87,670.977 606.87,663.727 606.745,656.727C606.62,649.727 601.495,636.227 601.911,634.019C602.41,631.373 611.078,634.352 614.078,636.686C617.078,639.019 622.578,645.186 625.578,646.686C628.578,648.186 634.411,650.519 635.745,646.686C637.079,642.852 632.912,640.186 629.578,635.019Z" />
        <path id="right_thigh" title="right_thigh" fill="#CCC"  fill-opacity="1" stroke="#1b87f7" stroke-opacity="1" stroke-width="0.5" d="M225.979,565.7C217.04,597.235 206.223,650.618 215.579,702.851C217.504,713.6 245.245,859.851 247.995,874.601C248.441,876.996 249.159,880.444 250.011,884.632C304.825,880.449 322.895,933.776 330.692,894.687C330.358,866.365 329.011,821.597 327.995,803.101C327.501,794.101 326.338,774.16 331.578,742.519C333.958,728.152 344.995,687.601 322.411,659.686C321.577,657.909 317.737,652.424 311.992,644.932C292.582,619.62 246.881,571.383 225.979,565.7Z" />
        <path id="left_thigh" title="left_thigh" fill="#CCC"  fill-opacity="1" stroke="#1b87f7" stroke-opacity="1" stroke-width="0.5" d="M372.333,644.243c-4.981,7.457-8.241,12.896-9.088,14.609c-22,24.166-15.5,60.25-10.5,83.75s4,49.25,3.75,59.5c-0.192,7.873-2.694,56.297-3.015,88.533c7.488,47.217,22.265-11.783,80.561-5.816c0.635-3.859,1.253-7.717,1.87-11.301c1.666-9.666,18.001-92.666,21.001-108.666s14.579-62.191,14.583-105.25c0.003-32.74-7.137-68.625-13.618-93.951C428.455,572.08,388.943,619.377,372.333,644.243z" />
        <path id="right_knee" title="right_knee" fill="#CCC"  fill-opacity="1" stroke="#1b87f7" stroke-opacity="1" stroke-width="0.5" d="M250.011,884.633c3.118,15.324,8.045,40.617,8.183,61.056c9.946,48.058,48.957,36.435,64.312,13.894c0.233-1.731,0.557-3.249,0.989-4.48c3.25-9.25,7-21.25,7.25-44c0.047-4.254,0.023-9.899-0.053-16.414C322.895,933.776,304.825,880.45,250.011,884.633z" />
        <path id="left_knee" title="left_knee" fill="#CCC"  fill-opacity="1" stroke="#1b87f7" stroke-opacity="1" stroke-width="0.5" d="M353.48,890.635c-0.097,9.738,0.006,17.998,0.431,23.219c1.833,22.5,4.167,31.666,7.667,44.5c15.167,23.998,59.667,38.498,64.917-16.002c0-11.75,2.083-30.834,4.083-39.166c1.259-5.246,2.386-11.811,3.463-18.367C375.745,878.852,360.969,937.852,353.48,890.635z" />
        <path id="right_leg" title="right_leg" fill="#CCC"  fill-opacity="1" stroke="#1b87f7" stroke-opacity="1" stroke-width="0.5" d="M258.194,945.688c0.056,8.378-0.69,15.94-2.699,21.663c-9.481,27.008-3.25,94.75,0,112s21.25,99.75,24.084,121.502c0.292,2.238,0.427,4.588,0.471,6.978c7.033-6.858,20.667-9.863,28.878-8.069c4.987,1.089,8.275,3.628,11.094,7.459c-2.393-9.663-1.715-19.744-1.028-34.869c0.75-16.5,6.75-83.5,9.75-105.25s0.75-46.25-2.5-62c-2.817-13.653-5.256-34.25-3.739-45.52C307.151,982.123,268.141,993.746,258.194,945.688z" />
        <path id="left_leg" title="left_leg" fill="#CCC"  fill-opacity="1" stroke="#1b87f7" stroke-opacity="1" stroke-width="0.5" d="M361.578,958.354c3.5,12.832-5.166,55.332-7,75.166c-1.834,19.832,5,54.5,5.167,66.334c0.167,11.832,3.166,42.5,4.833,56.832c1.667,14.334,2.333,41.168-0.667,53.5c3.302-5.502,5.874-9.074,12.053-10.424c8.796-1.922,21.821,0.66,28.281,8.59c0.5-9.5,5.25-38.25,14.75-79.25s12.75-69.75,14.5-100.5s-0.5-49.75-2.25-55s-4.75-19.5-4.75-31.25C421.245,996.852,376.745,982.352,361.578,958.354z" />
        <path id="right_ankle" title="right_ankle" fill="#CCC"  fill-opacity="1" stroke="#1b87f7" stroke-opacity="1" stroke-width="0.5" d="M308.929,1199.762c-8.211-1.794-21.846,1.211-28.878,8.069c0.207,10.988-1.584,22.862,0.196,29.022c1.613,5.583,2.301,5.904,1.311,9.828c7.505-4.416,35.265-5.709,42.285,2.941c-0.564-3.49-1.649-7.012-2.346-9.521c-1.25-4.5,0.25-8.75,1.75-11.25s0.75-8.5-2.5-19c-0.271-0.875-0.504-1.752-0.722-2.631C317.204,1203.39,313.916,1200.851,308.929,1199.762z" />
        <path id="left_ankle" title="left_ankle" fill="#CCC"  fill-opacity="1" stroke="#1b87f7" stroke-opacity="1" stroke-width="0.5" d="M375.964,1199.762c-6.179,1.35-8.751,4.922-12.053,10.424c-3,12.334-3.166,15.168-1.166,22.334c2,7.168,0,8.5-1.833,18c4.667-11.668,38.198-9.256,42-3.5c-1.666-4.334,0.5-5.5,1.833-12.5s-1-16.668-0.5-26.168C397.785,1200.422,384.76,1197.84,375.964,1199.762z" />
        <path id="right_foot" title="right_foot" fill="#CCC"  fill-opacity="1" stroke="#1b87f7" stroke-opacity="1" stroke-width="0.5" d="M281.557,1246.682c-0.34,1.347-0.877,3.116-1.644,5.672c-3,10-9.334,16.832-12.5,22c-3.166,5.166-0.5,7.832,2.833,9.666c3.333,1.832,3.333-0.5,4.833,0.666c1.5,1.168,12.334,0.5,13.5,0.168c1.166-0.334,1.5-0.668,5.167,0.832s8.833-2.332,10.667-0.666s10,1.666,12.666,1.404s5.334-5.238,5.834-6.738s0.333-3,1-5s1.166-6.166-0.167-9c-1.333-2.832-1.5-3.332,0-8.332c0.664-2.211,0.543-4.961,0.095-7.73C316.821,1240.973,289.062,1242.266,281.557,1246.682z" />
        <path id="left_foot" title="left_foot" fill="#CCC"  fill-opacity="1" stroke="#1b87f7" stroke-opacity="1" stroke-width="0.5" d="M360.912,1250.52c-1.833,9.5,2.666,9.834,0.333,14.166c-2.333,4.334-1.333,10.5-0.167,11.5s-1.333,2.5,3,7.168c4.333,4.666,13.834,2.666,15.334,2.166s3-1,4,0.201c1,1.203,6.5,0.633,7.666,0c1.166-0.631,3.334-1.201,4-0.318s5.167-0.383,7.5-0.049s5.834-1.168,8.167-0.834c2.333,0.332,7.167-2,7-6.5s-2.833-6.166-4.833-9.166s-8.334-17.5-10-21.834C399.11,1241.264,365.579,1238.852,360.912,1250.52z" />
    </g>
</svg>
